<svg xmlns="http://www.w3.org/2000/svg" height="48" viewBox="0 96 960 960" width="48"><path d="M480 976q-95 0-174.5-47.5T184 805q-78-20-131-83T0 576q0-92 63.5-157.5T222 346q21-87 90.5-141.5T480 150q86 0 158 50t101 131q74 14 123 74.5T912 576q0 91-63.5 157T675 793v-61q64-16 104.5-69.5T820 576q0-75-51.5-131.5T644 378l-25-4-8-24q-20-58-71-94t-113-36q-64 0-116 38.5T258 362l-9 24-26 7q-66 17-107.5 71.5T74 576q0 67 41 121t105 71l30 8 8 30q19 70 79 113.5T480 916h80v60h-80Zm-43-267L231 579l43-43 163 162 356-356 42 42-356 356Zm203 303v-88q-22-12-36.5-32.5T588 826q0-33 17-60t45-42v-72q0-17 12-29t29-12q17 0 28.5 12t11.5 29v69q31 4 51 28.5t20 55.5q0 28-20 52.5T731 850v88h-91Zm45-123q13 0 22-9.5t9-21.5q0-13-9-22.5T685 801q-12 0-21.5 9.5T654 833q0 12 9.5 21.5T685 856Z"/></svg>
